# xmcd
#
# Track frame offsets: 
#        150
#        10602
#        24868
#        33296
#        49761
#        68310
#        83430
#        105905
#        123269
#        142802
#        168276
#        185730
#        197922
#        207617
#        225878
#        242020
#        260637
#        278753
#
# Disc length: 3933 seconds
#
# Revision: 0
# Processed by: cddbd v1.5.2PL0 Copyright (c) Steve Scherf et al.
# Submitted via: ExactAudioCopy v0.99pb4
#
DISCID=da0f5b12
DTITLE=Various Artist - Radio 2 - 1000 Klassiekers - Vol. 8 - CD4
DYEAR=2016
DGENRE=Chanson
TTITLE0=Madness - One Step Beyond...
TTITLE1=Will Tura - Vlaanderen M'n Land
TTITLE2=The Box Tops - The Letter
TTITLE3=Armand - Ben Ik Te Min
TTITLE4=Ralph McTell - Streets Of London
TTITLE5=Mira - In De Fleur
TTITLE6=Fischer-Z - So Long
TTITLE7=Suzanne Vega - Luka
TTITLE8=John Terra - De Dag Dat 't Zonlicht Niet Meer Scheen
TTITLE9=Savage Garden - To The Moon And Back
TTITLE10=Gibson Brothers - Que Sera Mi Vida (If You Should Go)
TTITLE11=Jackie Wilson - Reet Petite
TTITLE12=Jules De Corte - Ik Zou Wel Eens Willen Weten
TTITLE13=Lady Linn And Her Magnificent Seven - I Don't Wanna Dance
TTITLE14=Bart Herman - Ogen Van Lood
TTITLE15=The Korgis - Everybody's Got To Learn Sometime
TTITLE16=Lana Del Rey - Video Games
TTITLE17=Yasmine - Hou Me Vast (Dieprood)
EXTD=
EXTT0=
EXTT1=
EXTT2=
EXTT3=
EXTT4=
EXTT5=
EXTT6=
EXTT7=
EXTT8=
EXTT9=
EXTT10=
EXTT11=
EXTT12=
EXTT13=
EXTT14=
EXTT15=
EXTT16=
EXTT17=
PLAYORDER=
